<?xml version="1.0" encoding="UTF-8" standalone="no"?>
<!DOCTYPE svg PUBLIC "-//W3C//DTD SVG 1.1//EN"
 "http://www.w3.org/Graphics/SVG/1.1/DTD/svg11.dtd">
<!-- Generated by graphviz version 2.43.0 (0)
 -->
<!-- Title: ActivityLearn Pages: 1 -->
<svg width="251pt" height="959pt"
 viewBox="0.00 0.00 251.10 958.60" xmlns="http://www.w3.org/2000/svg" xmlns:xlink="http://www.w3.org/1999/xlink">
<g id="graph0" class="graph" transform="scale(1 1) rotate(0) translate(28.8 929.8)">
<title>ActivityLearn</title>
<polygon fill="#0b1120" stroke="transparent" points="-28.8,28.8 -28.8,-929.8 222.3,-929.8 222.3,28.8 -28.8,28.8"/>
<!-- start -->
<g id="node1" class="node">
<title>start</title>
<ellipse fill="#34d399" stroke="#34d399" cx="118.5" cy="-892" rx="9" ry="9"/>
</g>
<!-- browse -->
<g id="node3" class="node">
<title>browse</title>
<path fill="#1e293b" stroke="#3b82f6" d="M181.5,-842C181.5,-842 55.5,-842 55.5,-842 49.5,-842 43.5,-836 43.5,-830 43.5,-830 43.5,-818 43.5,-818 43.5,-812 49.5,-806 55.5,-806 55.5,-806 181.5,-806 181.5,-806 187.5,-806 193.5,-812 193.5,-818 193.5,-818 193.5,-830 193.5,-830 193.5,-836 187.5,-842 181.5,-842"/>
<text text-anchor="middle" x="118.5" y="-821.2" font-family="Helvetica,sans-Serif" font-size="11.00" fill="#e2e8f0">Browse / search lessons</text>
</g>
<!-- start&#45;&gt;browse -->
<g id="edge1" class="edge">
<title>start&#45;&gt;browse</title>
<path fill="none" stroke="#64748b" d="M118.5,-882.91C118.5,-874.76 118.5,-861.78 118.5,-850.17"/>
<polygon fill="#64748b" stroke="#64748b" points="121.3,-850.05 118.5,-842.05 115.7,-850.05 121.3,-850.05"/>
</g>
<!-- end -->
<g id="node2" class="node">
<title>end</title>
<ellipse fill="#f472b6" stroke="#f472b6" cx="118.5" cy="-12" rx="8" ry="8"/>
<ellipse fill="none" stroke="#f472b6" cx="118.5" cy="-12" rx="12" ry="12"/>
</g>
<!-- open -->
<g id="node4" class="node">
<title>open</title>
<path fill="#1e293b" stroke="#3b82f6" d="M166,-765C166,-765 71,-765 71,-765 65,-765 59,-759 59,-753 59,-753 59,-741 59,-741 59,-735 65,-729 71,-729 71,-729 166,-729 166,-729 172,-729 178,-735 178,-741 178,-741 178,-753 178,-753 178,-759 172,-765 166,-765"/>
<text text-anchor="middle" x="118.5" y="-744.2" font-family="Helvetica,sans-Serif" font-size="11.00" fill="#e2e8f0">Open lesson detail</text>
</g>
<!-- browse&#45;&gt;open -->
<g id="edge2" class="edge">
<title>browse&#45;&gt;open</title>
<path fill="none" stroke="#64748b" d="M118.5,-805.98C118.5,-796.36 118.5,-784.16 118.5,-773.42"/>
<polygon fill="#64748b" stroke="#64748b" points="121.3,-773.21 118.5,-765.21 115.7,-773.21 121.3,-773.21"/>
</g>
<!-- auth -->
<g id="node5" class="node">
<title>auth</title>
<path fill="#172033" stroke="#fbbf24" d="M106.94,-684.79C106.94,-684.79 65.3,-673.21 65.3,-673.21 59.52,-671.61 59.52,-668.39 65.3,-666.79 65.3,-666.79 106.94,-655.21 106.94,-655.21 112.72,-653.61 124.28,-653.61 130.06,-655.21 130.06,-655.21 171.7,-666.79 171.7,-666.79 177.48,-668.39 177.48,-671.61 171.7,-673.21 171.7,-673.21 130.06,-684.79 130.06,-684.79 124.28,-686.39 112.72,-686.39 106.94,-684.79"/>
<text text-anchor="middle" x="118.5" y="-667.2" font-family="Helvetica,sans-Serif" font-size="11.00" fill="#e2e8f0">Logged in?</text>
</g>
<!-- open&#45;&gt;auth -->
<g id="edge3" class="edge">
<title>open&#45;&gt;auth</title>
<path fill="none" stroke="#64748b" d="M118.5,-728.98C118.5,-719.36 118.5,-707.16 118.5,-696.42"/>
<polygon fill="#64748b" stroke="#64748b" points="121.3,-696.21 118.5,-688.21 115.7,-696.21 121.3,-696.21"/>
</g>
<!-- login -->
<g id="node6" class="node">
<title>login</title>
<path fill="#1e293b" stroke="#3b82f6" d="M103,-601C103,-601 24,-601 24,-601 18,-601 12,-595 12,-589 12,-589 12,-577 12,-577 12,-571 18,-565 24,-565 24,-565 103,-565 103,-565 109,-565 115,-571 115,-577 115,-577 115,-589 115,-589 115,-595 109,-601 103,-601"/>
<text text-anchor="middle" x="63.5" y="-586.2" font-family="Helvetica,sans-Serif" font-size="11.00" fill="#e2e8f0">Register / Login</text>
<text text-anchor="middle" x="63.5" y="-574.2" font-family="Helvetica,sans-Serif" font-size="11.00" fill="#e2e8f0">(JWT issued)</text>
</g>
<!-- auth&#45;&gt;login -->
<g id="edge4" class="edge">
<title>auth&#45;&gt;login</title>
<path fill="none" stroke="#64748b" d="M109.17,-654.58C100.95,-641.88 88.82,-623.13 79.12,-608.14"/>
<polygon fill="#64748b" stroke="#64748b" points="81.28,-606.33 74.58,-601.13 76.58,-609.37 81.28,-606.33"/>
<text text-anchor="middle" x="101" y="-624" font-family="Times,serif" font-size="10.00" fill="#94a3b8">no</text>
</g>
<!-- watch -->
<g id="node7" class="node">
<title>watch</title>
<path fill="#1e293b" stroke="#3b82f6" d="M178,-524C178,-524 59,-524 59,-524 53,-524 47,-518 47,-512 47,-512 47,-500 47,-500 47,-494 53,-488 59,-488 59,-488 178,-488 178,-488 184,-488 190,-494 190,-500 190,-500 190,-512 190,-512 190,-518 184,-524 178,-524"/>
<text text-anchor="middle" x="118.5" y="-503.2" font-family="Helvetica,sans-Serif" font-size="11.00" fill="#e2e8f0">Study sections &amp; video</text>
</g>
<!-- auth&#45;&gt;watch -->
<g id="edge6" class="edge">
<title>auth&#45;&gt;watch</title>
<path fill="none" stroke="#64748b" d="M122.22,-652.8C126.45,-632.35 132.42,-596.09 129.5,-565 128.48,-554.16 126.41,-542.33 124.34,-532.19"/>
<polygon fill="#64748b" stroke="#64748b" points="127.03,-531.38 122.63,-524.14 121.55,-532.55 127.03,-531.38"/>
<text text-anchor="middle" x="139.5" y="-580.5" font-family="Times,serif" font-size="10.00" fill="#94a3b8">yes</text>
</g>
<!-- login&#45;&gt;watch -->
<g id="edge5" class="edge">
<title>login&#45;&gt;watch</title>
<path fill="none" stroke="#64748b" d="M75.98,-564.98C83.38,-554.89 92.88,-541.94 101.02,-530.84"/>
<polygon fill="#64748b" stroke="#64748b" points="103.41,-532.32 105.88,-524.21 98.89,-529.01 103.41,-532.32"/>
</g>
<!-- prog -->
<g id="node8" class="node">
<title>prog</title>
<path fill="#1e293b" stroke="#3b82f6" d="M107,-447C107,-447 12,-447 12,-447 6,-447 0,-441 0,-435 0,-435 0,-423 0,-423 0,-417 6,-411 12,-411 12,-411 107,-411 107,-411 113,-411 119,-417 119,-423 119,-423 119,-435 119,-435 119,-441 113,-447 107,-447"/>
<text text-anchor="middle" x="59.5" y="-432.2" font-family="Helvetica,sans-Serif" font-size="11.00" fill="#e2e8f0">Update progress</text>
<text text-anchor="middle" x="59.5" y="-420.2" font-family="Helvetica,sans-Serif" font-size="11.00" fill="#e2e8f0">(PercentComplete)</text>
</g>
<!-- watch&#45;&gt;prog -->
<g id="edge7" class="edge">
<title>watch&#45;&gt;prog</title>
<path fill="none" stroke="#64748b" d="M105.11,-487.98C97.1,-477.79 86.79,-464.7 78.01,-453.53"/>
<polygon fill="#64748b" stroke="#64748b" points="80.19,-451.77 73.04,-447.21 75.78,-455.23 80.19,-451.77"/>
</g>
<!-- done -->
<g id="node9" class="node">
<title>done</title>
<path fill="#172033" stroke="#fbbf24" d="M107.49,-365.24C107.49,-365.24 55.51,-342.76 55.51,-342.76 50.01,-340.38 50.01,-335.62 55.51,-333.24 55.51,-333.24 107.49,-310.76 107.49,-310.76 112.99,-308.38 124.01,-308.38 129.51,-310.76 129.51,-310.76 181.49,-333.24 181.49,-333.24 186.99,-335.62 186.99,-340.38 181.49,-342.76 181.49,-342.76 129.51,-365.24 129.51,-365.24 124.01,-367.62 112.99,-367.62 107.49,-365.24"/>
<text text-anchor="middle" x="118.5" y="-341.2" font-family="Helvetica,sans-Serif" font-size="11.00" fill="#e2e8f0">Lesson</text>
<text text-anchor="middle" x="118.5" y="-329.2" font-family="Helvetica,sans-Serif" font-size="11.00" fill="#e2e8f0">complete?</text>
</g>
<!-- prog&#45;&gt;done -->
<g id="edge8" class="edge">
<title>prog&#45;&gt;done</title>
<path fill="none" stroke="#64748b" d="M70.88,-410.84C78.52,-399.31 88.81,-383.79 97.87,-370.12"/>
<polygon fill="#64748b" stroke="#64748b" points="100.39,-371.39 102.48,-363.17 95.72,-368.29 100.39,-371.39"/>
</g>
<!-- done&#45;&gt;watch -->
<g id="edge9" class="edge">
<title>done&#45;&gt;watch</title>
<path fill="none" stroke="#64748b" d="M126.47,-366.95C131.69,-388.74 136.96,-419.77 133.5,-447 132.09,-458.07 129.23,-470.05 126.38,-480.24"/>
<polygon fill="#64748b" stroke="#64748b" points="123.67,-479.5 124.12,-487.96 129.05,-481.07 123.67,-479.5"/>
<text text-anchor="middle" x="142" y="-426.5" font-family="Times,serif" font-size="10.00" fill="#94a3b8">no</text>
</g>
<!-- submit -->
<g id="node10" class="node">
<title>submit</title>
<path fill="#1e293b" stroke="#3b82f6" d="M167.5,-255C167.5,-255 69.5,-255 69.5,-255 63.5,-255 57.5,-249 57.5,-243 57.5,-243 57.5,-231 57.5,-231 57.5,-225 63.5,-219 69.5,-219 69.5,-219 167.5,-219 167.5,-219 173.5,-219 179.5,-225 179.5,-231 179.5,-231 179.5,-243 179.5,-243 179.5,-249 173.5,-255 167.5,-255"/>
<text text-anchor="middle" x="118.5" y="-240.2" font-family="Helvetica,sans-Serif" font-size="11.00" fill="#e2e8f0">Submit lesson</text>
<text text-anchor="middle" x="118.5" y="-228.2" font-family="Helvetica,sans-Serif" font-size="11.00" fill="#e2e8f0">(Score / MaxScore)</text>
</g>
<!-- done&#45;&gt;submit -->
<g id="edge10" class="edge">
<title>done&#45;&gt;submit</title>
<path fill="none" stroke="#64748b" d="M118.5,-305.95C118.5,-292.18 118.5,-276.19 118.5,-263.18"/>
<polygon fill="#64748b" stroke="#64748b" points="121.3,-263.11 118.5,-255.11 115.7,-263.11 121.3,-263.11"/>
<text text-anchor="middle" x="127.5" y="-278" font-family="Times,serif" font-size="10.00" fill="#94a3b8">yes</text>
</g>
<!-- ach -->
<g id="node11" class="node">
<title>ach</title>
<path fill="#1e293b" stroke="#3b82f6" d="M179.5,-178C179.5,-178 57.5,-178 57.5,-178 51.5,-178 45.5,-172 45.5,-166 45.5,-166 45.5,-154 45.5,-154 45.5,-148 51.5,-142 57.5,-142 57.5,-142 179.5,-142 179.5,-142 185.5,-142 191.5,-148 191.5,-154 191.5,-154 191.5,-166 191.5,-166 191.5,-172 185.5,-178 179.5,-178"/>
<text text-anchor="middle" x="118.5" y="-163.2" font-family="Helvetica,sans-Serif" font-size="11.00" fill="#e2e8f0">Evaluate achievements</text>
<text text-anchor="middle" x="118.5" y="-151.2" font-family="Helvetica,sans-Serif" font-size="11.00" fill="#e2e8f0">&amp; certificate eligibility</text>
</g>
<!-- submit&#45;&gt;ach -->
<g id="edge11" class="edge">
<title>submit&#45;&gt;ach</title>
<path fill="none" stroke="#64748b" d="M118.5,-218.98C118.5,-209.36 118.5,-197.16 118.5,-186.42"/>
<polygon fill="#64748b" stroke="#64748b" points="121.3,-186.21 118.5,-178.21 115.7,-186.21 121.3,-186.21"/>
</g>
<!-- notify -->
<g id="node12" class="node">
<title>notify</title>
<path fill="#1e293b" stroke="#3b82f6" d="M175,-101C175,-101 62,-101 62,-101 56,-101 50,-95 50,-89 50,-89 50,-77 50,-77 50,-71 56,-65 62,-65 62,-65 175,-65 175,-65 181,-65 187,-71 187,-77 187,-77 187,-89 187,-89 187,-95 181,-101 175,-101"/>
<text text-anchor="middle" x="118.5" y="-86.2" font-family="Helvetica,sans-Serif" font-size="11.00" fill="#e2e8f0">Create notification</text>
<text text-anchor="middle" x="118.5" y="-74.2" font-family="Helvetica,sans-Serif" font-size="11.00" fill="#e2e8f0">+ update leaderboard</text>
</g>
<!-- ach&#45;&gt;notify -->
<g id="edge12" class="edge">
<title>ach&#45;&gt;notify</title>
<path fill="none" stroke="#64748b" d="M118.5,-141.98C118.5,-132.36 118.5,-120.16 118.5,-109.42"/>
<polygon fill="#64748b" stroke="#64748b" points="121.3,-109.21 118.5,-101.21 115.7,-109.21 121.3,-109.21"/>
</g>
<!-- notify&#45;&gt;end -->
<g id="edge13" class="edge">
<title>notify&#45;&gt;end</title>
<path fill="none" stroke="#64748b" d="M118.5,-64.94C118.5,-55.07 118.5,-42.6 118.5,-32.36"/>
<polygon fill="#64748b" stroke="#64748b" points="121.3,-32.05 118.5,-24.05 115.7,-32.05 121.3,-32.05"/>
</g>
</g>
</svg>
