<?xml version="1.0" encoding="UTF-8" standalone="no"?>
<!DOCTYPE svg PUBLIC "-//W3C//DTD SVG 1.1//EN"
 "http://www.w3.org/Graphics/SVG/1.1/DTD/svg11.dtd">
<!-- Generated by graphviz version 2.43.0 (0)
 -->
<!-- Title: Entities Pages: 1 -->
<svg width="798pt" height="730pt"
 viewBox="0.00 0.00 797.60 729.60" xmlns="http://www.w3.org/2000/svg" xmlns:xlink="http://www.w3.org/1999/xlink">
<g id="graph0" class="graph" transform="scale(1 1) rotate(0) translate(28.8 700.8)">
<title>Entities</title>
<polygon fill="#0b1120" stroke="transparent" points="-28.8,28.8 -28.8,-700.8 768.8,-700.8 768.8,28.8 -28.8,28.8"/>
<!-- UserData -->
<g id="node1" class="node">
<title>UserData</title>
<polygon fill="#1e293b" stroke="transparent" points="252,-246 252,-390 423,-390 423,-246 252,-246"/>
<polygon fill="#38bdf8" stroke="transparent" points="252.5,-372 252.5,-390 423.5,-390 423.5,-372 252.5,-372"/>
<polygon fill="none" stroke="#38bdf8" points="252.5,-372 252.5,-390 423.5,-390 423.5,-372 252.5,-372"/>
<text text-anchor="start" x="309" y="-379.2" font-family="Helvetica,sans-Serif" font-weight="bold" font-size="11.00" fill="#0b1120">UserData</text>
<polygon fill="none" stroke="#38bdf8" points="252.5,-354 252.5,-372 423.5,-372 423.5,-354 252.5,-354"/>
<text text-anchor="start" x="255.5" y="-360.2" font-family="Helvetica,sans-Serif" font-size="11.00" fill="#e2e8f0">+ Id : int</text>
<polygon fill="none" stroke="#38bdf8" points="252.5,-336 252.5,-354 423.5,-354 423.5,-336 252.5,-336"/>
<text text-anchor="start" x="255.5" y="-342.2" font-family="Helvetica,sans-Serif" font-size="11.00" fill="#e2e8f0">+ Name : string(100)</text>
<polygon fill="none" stroke="#38bdf8" points="252.5,-318 252.5,-336 423.5,-336 423.5,-318 252.5,-318"/>
<text text-anchor="start" x="255.5" y="-324.2" font-family="Helvetica,sans-Serif" font-size="11.00" fill="#e2e8f0">+ Email : string(150) [unique]</text>
<polygon fill="none" stroke="#38bdf8" points="252.5,-300 252.5,-318 423.5,-318 423.5,-300 252.5,-300"/>
<text text-anchor="start" x="255.5" y="-306.2" font-family="Helvetica,sans-Serif" font-size="11.00" fill="#e2e8f0">+ PasswordHash : string</text>
<polygon fill="none" stroke="#38bdf8" points="252.5,-282 252.5,-300 423.5,-300 423.5,-282 252.5,-282"/>
<text text-anchor="start" x="255.5" y="-288.2" font-family="Helvetica,sans-Serif" font-size="11.00" fill="#e2e8f0">+ Role : string(20)</text>
<polygon fill="none" stroke="#38bdf8" points="252.5,-264 252.5,-282 423.5,-282 423.5,-264 252.5,-264"/>
<text text-anchor="start" x="255.5" y="-270.2" font-family="Helvetica,sans-Serif" font-size="11.00" fill="#e2e8f0">+ Avatar : string</text>
<polygon fill="none" stroke="#38bdf8" points="252.5,-246 252.5,-264 423.5,-264 423.5,-246 252.5,-246"/>
<text text-anchor="start" x="255.5" y="-252.2" font-family="Helvetica,sans-Serif" font-size="11.00" fill="#e2e8f0">+ CreatedAt : DateTime</text>
</g>
<!-- UserProgressData -->
<g id="node5" class="node">
<title>UserProgressData</title>
<polygon fill="#1e293b" stroke="transparent" points="543,-412 543,-520 732,-520 732,-412 543,-412"/>
<polygon fill="#fbbf24" stroke="transparent" points="543.5,-502 543.5,-520 732.5,-520 732.5,-502 543.5,-502"/>
<polygon fill="none" stroke="#fbbf24" points="543.5,-502 543.5,-520 732.5,-520 732.5,-502 543.5,-502"/>
<text text-anchor="start" x="581.5" y="-509.2" font-family="Helvetica,sans-Serif" font-weight="bold" font-size="11.00" fill="#0b1120">UserProgressData</text>
<polygon fill="none" stroke="#fbbf24" points="543.5,-484 543.5,-502 732.5,-502 732.5,-484 543.5,-484"/>
<text text-anchor="start" x="546.5" y="-490.2" font-family="Helvetica,sans-Serif" font-size="11.00" fill="#e2e8f0">+ Id : int</text>
<polygon fill="none" stroke="#fbbf24" points="543.5,-466 543.5,-484 732.5,-484 732.5,-466 543.5,-466"/>
<text text-anchor="start" x="546.5" y="-472.2" font-family="Helvetica,sans-Serif" font-size="11.00" fill="#e2e8f0">+ UserId : int [FK]</text>
<polygon fill="none" stroke="#fbbf24" points="543.5,-448 543.5,-466 732.5,-466 732.5,-448 543.5,-448"/>
<text text-anchor="start" x="546.5" y="-454.2" font-family="Helvetica,sans-Serif" font-size="11.00" fill="#e2e8f0">+ LessonId : int [FK]</text>
<polygon fill="none" stroke="#fbbf24" points="543.5,-430 543.5,-448 732.5,-448 732.5,-430 543.5,-430"/>
<text text-anchor="start" x="546.5" y="-436.2" font-family="Helvetica,sans-Serif" font-size="11.00" fill="#e2e8f0">+ PercentComplete : int</text>
<polygon fill="none" stroke="#fbbf24" points="543.5,-412 543.5,-430 732.5,-430 732.5,-412 543.5,-412"/>
<text text-anchor="start" x="546.5" y="-418.2" font-family="Helvetica,sans-Serif" font-size="11.00" fill="#e2e8f0">+ CompletedAt / LastAccessedAt</text>
</g>
<!-- UserData&#45;&gt;UserProgressData -->
<g id="edge3" class="edge">
<title>UserData&#45;&gt;UserProgressData</title>
<path fill="none" stroke="#94a3b8" d="M431.16,-364.02C461.6,-379.14 495.73,-396.09 527.29,-411.76"/>
<polygon fill="#94a3b8" stroke="#94a3b8" points="534.83,-415.51 526.07,-415.17 531.25,-413.73 527.67,-411.95 527.67,-411.95 527.67,-411.95 531.25,-413.73 529.27,-408.72 534.83,-415.51 534.83,-415.51"/>
<text text-anchor="middle" x="490" y="-399" font-family="Times,serif" font-size="10.00" fill="#cbd5e1">1..*</text>
</g>
<!-- SubmissionData -->
<g id="node6" class="node">
<title>SubmissionData</title>
<polygon fill="#1e293b" stroke="transparent" points="561.5,-264 561.5,-372 713.5,-372 713.5,-264 561.5,-264"/>
<polygon fill="#fbbf24" stroke="transparent" points="561.5,-354 561.5,-372 713.5,-372 713.5,-354 561.5,-354"/>
<polygon fill="none" stroke="#fbbf24" points="561.5,-354 561.5,-372 713.5,-372 713.5,-354 561.5,-354"/>
<text text-anchor="start" x="587.5" y="-361.2" font-family="Helvetica,sans-Serif" font-weight="bold" font-size="11.00" fill="#0b1120">SubmissionData</text>
<polygon fill="none" stroke="#fbbf24" points="561.5,-336 561.5,-354 713.5,-354 713.5,-336 561.5,-336"/>
<text text-anchor="start" x="564.5" y="-342.2" font-family="Helvetica,sans-Serif" font-size="11.00" fill="#e2e8f0">+ Id : int</text>
<polygon fill="none" stroke="#fbbf24" points="561.5,-318 561.5,-336 713.5,-336 713.5,-318 561.5,-318"/>
<text text-anchor="start" x="564.5" y="-324.2" font-family="Helvetica,sans-Serif" font-size="11.00" fill="#e2e8f0">+ UserId : int [FK]</text>
<polygon fill="none" stroke="#fbbf24" points="561.5,-300 561.5,-318 713.5,-318 713.5,-300 561.5,-300"/>
<text text-anchor="start" x="564.5" y="-306.2" font-family="Helvetica,sans-Serif" font-size="11.00" fill="#e2e8f0">+ LessonId : int</text>
<polygon fill="none" stroke="#fbbf24" points="561.5,-282 561.5,-300 713.5,-300 713.5,-282 561.5,-282"/>
<text text-anchor="start" x="564.5" y="-288.2" font-family="Helvetica,sans-Serif" font-size="11.00" fill="#e2e8f0">+ Score / MaxScore : int</text>
<polygon fill="none" stroke="#fbbf24" points="561.5,-264 561.5,-282 713.5,-282 713.5,-264 561.5,-264"/>
<text text-anchor="start" x="564.5" y="-270.2" font-family="Helvetica,sans-Serif" font-size="11.00" fill="#e2e8f0">+ SubmittedAt : DateTime</text>
</g>
<!-- UserData&#45;&gt;SubmissionData -->
<g id="edge5" class="edge">
<title>UserData&#45;&gt;SubmissionData</title>
<path fill="none" stroke="#94a3b8" d="M431.16,-318C467.37,-318 508.8,-318 544.91,-318"/>
<polygon fill="#94a3b8" stroke="#94a3b8" points="553.01,-318 545.01,-321.6 549.01,-318 545.01,-318 545.01,-318 545.01,-318 549.01,-318 545.01,-314.4 553.01,-318 553.01,-318"/>
<text text-anchor="middle" x="490" y="-321" font-family="Times,serif" font-size="10.00" fill="#cbd5e1">1..*</text>
</g>
<!-- UserAchievementData -->
<g id="node8" class="node">
<title>UserAchievementData</title>
<polygon fill="#1e293b" stroke="transparent" points="552,-4 552,-76 723,-76 723,-4 552,-4"/>
<polygon fill="#f472b6" stroke="transparent" points="552.5,-58 552.5,-76 723.5,-76 723.5,-58 552.5,-58"/>
<polygon fill="none" stroke="#f472b6" points="552.5,-58 552.5,-76 723.5,-76 723.5,-58 552.5,-58"/>
<text text-anchor="start" x="568.5" y="-65.2" font-family="Helvetica,sans-Serif" font-weight="bold" font-size="11.00" fill="#0b1120">UserAchievementData</text>
<polygon fill="none" stroke="#f472b6" points="552.5,-40 552.5,-58 723.5,-58 723.5,-40 552.5,-40"/>
<text text-anchor="start" x="555.5" y="-46.2" font-family="Helvetica,sans-Serif" font-size="11.00" fill="#e2e8f0">+ UserId : int [PK,FK]</text>
<polygon fill="none" stroke="#f472b6" points="552.5,-22 552.5,-40 723.5,-40 723.5,-22 552.5,-22"/>
<text text-anchor="start" x="555.5" y="-28.2" font-family="Helvetica,sans-Serif" font-size="11.00" fill="#e2e8f0">+ AchievementId : int [PK,FK]</text>
<polygon fill="none" stroke="#f472b6" points="552.5,-4 552.5,-22 723.5,-22 723.5,-4 552.5,-4"/>
<text text-anchor="start" x="555.5" y="-10.2" font-family="Helvetica,sans-Serif" font-size="11.00" fill="#e2e8f0">+ EarnedAt : DateTime</text>
</g>
<!-- UserData&#45;&gt;UserAchievementData -->
<g id="edge6" class="edge">
<title>UserData&#45;&gt;UserAchievementData</title>
<path fill="none" stroke="#94a3b8" d="M429.77,-241.98C435.06,-236.71 440.18,-231.36 445,-226 491.96,-173.73 482.86,-143.11 535,-96 539.31,-92.1 543.94,-88.37 548.77,-84.82"/>
<polygon fill="#94a3b8" stroke="#94a3b8" points="555.45,-80.09 551,-87.65 552.18,-82.4 548.92,-84.72 548.92,-84.72 548.92,-84.72 552.18,-82.4 546.84,-81.78 555.45,-80.09 555.45,-80.09"/>
<text text-anchor="middle" x="490" y="-175" font-family="Times,serif" font-size="10.00" fill="#cbd5e1">1..*</text>
</g>
<!-- NotificationData -->
<g id="node9" class="node">
<title>NotificationData</title>
<polygon fill="#1e293b" stroke="transparent" points="564.5,-116 564.5,-224 710.5,-224 710.5,-116 564.5,-116"/>
<polygon fill="#60a5fa" stroke="transparent" points="564.5,-206 564.5,-224 710.5,-224 710.5,-206 564.5,-206"/>
<polygon fill="none" stroke="#60a5fa" points="564.5,-206 564.5,-224 710.5,-224 710.5,-206 564.5,-206"/>
<text text-anchor="start" x="586.5" y="-213.2" font-family="Helvetica,sans-Serif" font-weight="bold" font-size="11.00" fill="#0b1120">NotificationData</text>
<polygon fill="none" stroke="#60a5fa" points="564.5,-188 564.5,-206 710.5,-206 710.5,-188 564.5,-188"/>
<text text-anchor="start" x="567.5" y="-194.2" font-family="Helvetica,sans-Serif" font-size="11.00" fill="#e2e8f0">+ Id : int</text>
<polygon fill="none" stroke="#60a5fa" points="564.5,-170 564.5,-188 710.5,-188 710.5,-170 564.5,-170"/>
<text text-anchor="start" x="567.5" y="-176.2" font-family="Helvetica,sans-Serif" font-size="11.00" fill="#e2e8f0">+ Title / Message : string</text>
<polygon fill="none" stroke="#60a5fa" points="564.5,-152 564.5,-170 710.5,-170 710.5,-152 564.5,-152"/>
<text text-anchor="start" x="567.5" y="-158.2" font-family="Helvetica,sans-Serif" font-size="11.00" fill="#e2e8f0">+ Type : string(30)</text>
<polygon fill="none" stroke="#60a5fa" points="564.5,-134 564.5,-152 710.5,-152 710.5,-134 564.5,-134"/>
<text text-anchor="start" x="567.5" y="-140.2" font-family="Helvetica,sans-Serif" font-size="11.00" fill="#e2e8f0">+ UserId : int? [FK]</text>
<polygon fill="none" stroke="#60a5fa" points="564.5,-116 564.5,-134 710.5,-134 710.5,-116 564.5,-116"/>
<text text-anchor="start" x="567.5" y="-122.2" font-family="Helvetica,sans-Serif" font-size="11.00" fill="#e2e8f0">+ IsRead : bool</text>
</g>
<!-- UserData&#45;&gt;NotificationData -->
<g id="edge8" class="edge">
<title>UserData&#45;&gt;NotificationData</title>
<path fill="none" stroke="#94a3b8" d="M431.16,-271.98C468.8,-253.29 512.07,-231.8 549.15,-213.38"/>
<polygon fill="#94a3b8" stroke="#94a3b8" points="556.48,-209.74 550.92,-216.52 552.9,-211.52 549.31,-213.3 549.31,-213.3 549.31,-213.3 552.9,-211.52 547.71,-210.08 556.48,-209.74 556.48,-209.74"/>
<text text-anchor="middle" x="490" y="-247" font-family="Times,serif" font-size="10.00" fill="#cbd5e1">0..*</text>
</g>
<!-- LessonData -->
<g id="node2" class="node">
<title>LessonData</title>
<polygon fill="#1e293b" stroke="transparent" points="238,-430 238,-592 437,-592 437,-430 238,-430"/>
<polygon fill="#a78bfa" stroke="transparent" points="238.5,-574 238.5,-592 437.5,-592 437.5,-574 238.5,-574"/>
<polygon fill="none" stroke="#a78bfa" points="238.5,-574 238.5,-592 437.5,-592 437.5,-574 238.5,-574"/>
<text text-anchor="start" x="301.5" y="-581.2" font-family="Helvetica,sans-Serif" font-weight="bold" font-size="11.00" fill="#0b1120">LessonData</text>
<polygon fill="none" stroke="#a78bfa" points="238.5,-556 238.5,-574 437.5,-574 437.5,-556 238.5,-556"/>
<text text-anchor="start" x="241.5" y="-562.2" font-family="Helvetica,sans-Serif" font-size="11.00" fill="#e2e8f0">+ Id : int</text>
<polygon fill="none" stroke="#a78bfa" points="238.5,-538 238.5,-556 437.5,-556 437.5,-538 238.5,-538"/>
<text text-anchor="start" x="241.5" y="-544.2" font-family="Helvetica,sans-Serif" font-size="11.00" fill="#e2e8f0">+ Title : string(200)</text>
<polygon fill="none" stroke="#a78bfa" points="238.5,-520 238.5,-538 437.5,-538 437.5,-520 238.5,-520"/>
<text text-anchor="start" x="241.5" y="-526.2" font-family="Helvetica,sans-Serif" font-size="11.00" fill="#e2e8f0">+ Description : string</text>
<polygon fill="none" stroke="#a78bfa" points="238.5,-502 238.5,-520 437.5,-520 437.5,-502 238.5,-502"/>
<text text-anchor="start" x="241.5" y="-508.2" font-family="Helvetica,sans-Serif" font-size="11.00" fill="#e2e8f0">+ CategoryId : int [FK]</text>
<polygon fill="none" stroke="#a78bfa" points="238.5,-484 238.5,-502 437.5,-502 437.5,-484 238.5,-484"/>
<text text-anchor="start" x="241.5" y="-490.2" font-family="Helvetica,sans-Serif" font-size="11.00" fill="#e2e8f0">+ Difficulty : string(20)</text>
<polygon fill="none" stroke="#a78bfa" points="238.5,-466 238.5,-484 437.5,-484 437.5,-466 238.5,-466"/>
<text text-anchor="start" x="241.5" y="-472.2" font-family="Helvetica,sans-Serif" font-size="11.00" fill="#e2e8f0">+ Duration / Rating / StudentCount</text>
<polygon fill="none" stroke="#a78bfa" points="238.5,-448 238.5,-466 437.5,-466 437.5,-448 238.5,-448"/>
<text text-anchor="start" x="241.5" y="-454.2" font-family="Helvetica,sans-Serif" font-size="11.00" fill="#e2e8f0">+ ProfesorName : string</text>
<polygon fill="none" stroke="#a78bfa" points="238.5,-430 238.5,-448 437.5,-448 437.5,-430 238.5,-430"/>
<text text-anchor="start" x="241.5" y="-436.2" font-family="Helvetica,sans-Serif" font-size="11.00" fill="#e2e8f0">+ Thumbnail / VideoUrl / IsLocked</text>
</g>
<!-- LessonSectionData -->
<g id="node4" class="node">
<title>LessonSectionData</title>
<polygon fill="#1e293b" stroke="transparent" points="575,-560 575,-668 700,-668 700,-560 575,-560"/>
<polygon fill="#a78bfa" stroke="transparent" points="575.5,-650 575.5,-668 700.5,-668 700.5,-650 575.5,-650"/>
<polygon fill="none" stroke="#a78bfa" points="575.5,-650 575.5,-668 700.5,-668 700.5,-650 575.5,-650"/>
<text text-anchor="start" x="578.5" y="-657.2" font-family="Helvetica,sans-Serif" font-weight="bold" font-size="11.00" fill="#0b1120">LessonSectionData</text>
<polygon fill="none" stroke="#a78bfa" points="575.5,-632 575.5,-650 700.5,-650 700.5,-632 575.5,-632"/>
<text text-anchor="start" x="578.5" y="-638.2" font-family="Helvetica,sans-Serif" font-size="11.00" fill="#e2e8f0">+ Id : int</text>
<polygon fill="none" stroke="#a78bfa" points="575.5,-614 575.5,-632 700.5,-632 700.5,-614 575.5,-614"/>
<text text-anchor="start" x="578.5" y="-620.2" font-family="Helvetica,sans-Serif" font-size="11.00" fill="#e2e8f0">+ LessonId : int [FK]</text>
<polygon fill="none" stroke="#a78bfa" points="575.5,-596 575.5,-614 700.5,-614 700.5,-596 575.5,-596"/>
<text text-anchor="start" x="578.5" y="-602.2" font-family="Helvetica,sans-Serif" font-size="11.00" fill="#e2e8f0">+ Title : string</text>
<polygon fill="none" stroke="#a78bfa" points="575.5,-578 575.5,-596 700.5,-596 700.5,-578 575.5,-578"/>
<text text-anchor="start" x="578.5" y="-584.2" font-family="Helvetica,sans-Serif" font-size="11.00" fill="#e2e8f0">+ Duration : int</text>
<polygon fill="none" stroke="#a78bfa" points="575.5,-560 575.5,-578 700.5,-578 700.5,-560 575.5,-560"/>
<text text-anchor="start" x="578.5" y="-566.2" font-family="Helvetica,sans-Serif" font-size="11.00" fill="#e2e8f0">+ Order : int</text>
</g>
<!-- LessonData&#45;&gt;LessonSectionData -->
<g id="edge2" class="edge">
<title>LessonData&#45;&gt;LessonSectionData</title>
<path fill="none" stroke="#94a3b8" d="M454.79,-551.19C489.67,-563.25 527.07,-576.18 558.81,-587.15"/>
<polygon fill="#94a3b8" stroke="#94a3b8" points="454.32,-551.03 448.73,-552.49 445.24,-547.89 450.83,-546.44 454.32,-551.03"/>
<polygon fill="#94a3b8" stroke="#94a3b8" points="566.75,-589.89 558.02,-590.68 562.97,-588.59 559.19,-587.28 559.19,-587.28 559.19,-587.28 562.97,-588.59 560.37,-583.88 566.75,-589.89 566.75,-589.89"/>
<text text-anchor="middle" x="490" y="-568" font-family="Times,serif" font-size="10.00" fill="#cbd5e1">1..*</text>
</g>
<!-- LessonData&#45;&gt;UserProgressData -->
<g id="edge4" class="edge">
<title>LessonData&#45;&gt;UserProgressData</title>
<path fill="none" stroke="#94a3b8" d="M445.24,-494.88C471.73,-490.88 500.16,-486.59 526.78,-482.57"/>
<polygon fill="#94a3b8" stroke="#94a3b8" points="534.99,-481.33 527.61,-486.08 531.03,-481.93 527.07,-482.52 527.07,-482.52 527.07,-482.52 531.03,-481.93 526.54,-478.96 534.99,-481.33 534.99,-481.33"/>
<text text-anchor="middle" x="490" y="-491" font-family="Times,serif" font-size="10.00" fill="#cbd5e1">1..*</text>
</g>
<!-- CategoryData -->
<g id="node3" class="node">
<title>CategoryData</title>
<polygon fill="#1e293b" stroke="transparent" points="8,-140 8,-230 132,-230 132,-140 8,-140"/>
<polygon fill="#34d399" stroke="transparent" points="8,-212 8,-230 132,-230 132,-212 8,-212"/>
<polygon fill="none" stroke="#34d399" points="8,-212 8,-230 132,-230 132,-212 8,-212"/>
<text text-anchor="start" x="27" y="-219.2" font-family="Helvetica,sans-Serif" font-weight="bold" font-size="11.00" fill="#0b1120">CategoryData</text>
<polygon fill="none" stroke="#34d399" points="8,-194 8,-212 132,-212 132,-194 8,-194"/>
<text text-anchor="start" x="11" y="-200.2" font-family="Helvetica,sans-Serif" font-size="11.00" fill="#e2e8f0">+ Id : int</text>
<polygon fill="none" stroke="#34d399" points="8,-176 8,-194 132,-194 132,-176 8,-176"/>
<text text-anchor="start" x="11" y="-182.2" font-family="Helvetica,sans-Serif" font-size="11.00" fill="#e2e8f0">+ Name : string</text>
<polygon fill="none" stroke="#34d399" points="8,-158 8,-176 132,-176 132,-158 8,-158"/>
<text text-anchor="start" x="11" y="-164.2" font-family="Helvetica,sans-Serif" font-size="11.00" fill="#e2e8f0">+ Description : string</text>
<polygon fill="none" stroke="#34d399" points="8,-140 8,-158 132,-158 132,-140 8,-140"/>
<text text-anchor="start" x="11" y="-146.2" font-family="Helvetica,sans-Serif" font-size="11.00" fill="#e2e8f0">+ Icon : string</text>
</g>
<!-- CategoryData&#45;&gt;LessonData -->
<g id="edge1" class="edge">
<title>CategoryData&#45;&gt;LessonData</title>
<path fill="none" stroke="#94a3b8" d="M107.49,-243.1C137.98,-289.95 183.77,-356.6 230,-410 232.58,-412.98 235.24,-415.97 237.95,-418.95"/>
<polygon fill="#94a3b8" stroke="#94a3b8" points="107.47,-243.07 101.52,-240.49 101.6,-234 107.56,-236.58 107.47,-243.07"/>
<polygon fill="#94a3b8" stroke="#94a3b8" points="244.39,-425.91 235.3,-422.05 241.33,-422.61 238.27,-419.3 238.27,-419.3 238.27,-419.3 241.33,-422.61 241.25,-416.55 244.39,-425.91 244.39,-425.91"/>
<text text-anchor="middle" x="185" y="-366" font-family="Times,serif" font-size="10.00" fill="#cbd5e1">1..*</text>
</g>
<!-- CertificateData -->
<g id="node10" class="node">
<title>CertificateData</title>
<polygon fill="#1e293b" stroke="transparent" points="252,-116 252,-206 423,-206 423,-116 252,-116"/>
<polygon fill="#34d399" stroke="transparent" points="252.5,-188 252.5,-206 423.5,-206 423.5,-188 252.5,-188"/>
<polygon fill="none" stroke="#34d399" points="252.5,-188 252.5,-206 423.5,-206 423.5,-188 252.5,-188"/>
<text text-anchor="start" x="290.5" y="-195.2" font-family="Helvetica,sans-Serif" font-weight="bold" font-size="11.00" fill="#0b1120">CertificateData</text>
<polygon fill="none" stroke="#34d399" points="252.5,-170 252.5,-188 423.5,-188 423.5,-170 252.5,-170"/>
<text text-anchor="start" x="255.5" y="-176.2" font-family="Helvetica,sans-Serif" font-size="11.00" fill="#e2e8f0">+ Id : int</text>
<polygon fill="none" stroke="#34d399" points="252.5,-152 252.5,-170 423.5,-170 423.5,-152 252.5,-152"/>
<text text-anchor="start" x="255.5" y="-158.2" font-family="Helvetica,sans-Serif" font-size="11.00" fill="#e2e8f0">+ Title / Description : string</text>
<polygon fill="none" stroke="#34d399" points="252.5,-134 252.5,-152 423.5,-152 423.5,-134 252.5,-134"/>
<text text-anchor="start" x="255.5" y="-140.2" font-family="Helvetica,sans-Serif" font-size="11.00" fill="#e2e8f0">+ CategoryId : int [FK]</text>
<polygon fill="none" stroke="#34d399" points="252.5,-116 252.5,-134 423.5,-134 423.5,-116 252.5,-116"/>
<text text-anchor="start" x="255.5" y="-122.2" font-family="Helvetica,sans-Serif" font-size="11.00" fill="#e2e8f0">+ LessonsRequired / Duration</text>
</g>
<!-- CategoryData&#45;&gt;CertificateData -->
<g id="edge9" class="edge">
<title>CategoryData&#45;&gt;CertificateData</title>
<path fill="none" stroke="#94a3b8" d="M140.06,-178.76C169.24,-176.12 203.8,-173 235.73,-170.11"/>
<polygon fill="#94a3b8" stroke="#94a3b8" points="243.79,-169.38 236.15,-173.69 239.81,-169.74 235.82,-170.1 235.82,-170.1 235.82,-170.1 239.81,-169.74 235.5,-166.52 243.79,-169.38 243.79,-169.38"/>
<text text-anchor="middle" x="185" y="-179" font-family="Times,serif" font-size="10.00" fill="#cbd5e1">1..*</text>
</g>
<!-- AchievementData -->
<g id="node7" class="node">
<title>AchievementData</title>
<polygon fill="#1e293b" stroke="transparent" points="257.5,-4 257.5,-76 417.5,-76 417.5,-4 257.5,-4"/>
<polygon fill="#f472b6" stroke="transparent" points="257.5,-58 257.5,-76 417.5,-76 417.5,-58 257.5,-58"/>
<polygon fill="none" stroke="#f472b6" points="257.5,-58 257.5,-76 417.5,-76 417.5,-58 257.5,-58"/>
<text text-anchor="start" x="282.5" y="-65.2" font-family="Helvetica,sans-Serif" font-weight="bold" font-size="11.00" fill="#0b1120">AchievementData</text>
<polygon fill="none" stroke="#f472b6" points="257.5,-40 257.5,-58 417.5,-58 417.5,-40 257.5,-40"/>
<text text-anchor="start" x="260.5" y="-46.2" font-family="Helvetica,sans-Serif" font-size="11.00" fill="#e2e8f0">+ Id : int</text>
<polygon fill="none" stroke="#f472b6" points="257.5,-22 257.5,-40 417.5,-40 417.5,-22 257.5,-22"/>
<text text-anchor="start" x="260.5" y="-28.2" font-family="Helvetica,sans-Serif" font-size="11.00" fill="#e2e8f0">+ Title / Description : string</text>
<polygon fill="none" stroke="#f472b6" points="257.5,-4 257.5,-22 417.5,-22 417.5,-4 257.5,-4"/>
<text text-anchor="start" x="260.5" y="-10.2" font-family="Helvetica,sans-Serif" font-size="11.00" fill="#e2e8f0">+ Icon / Condition : string</text>
</g>
<!-- AchievementData&#45;&gt;UserAchievementData -->
<g id="edge7" class="edge">
<title>AchievementData&#45;&gt;UserAchievementData</title>
<path fill="none" stroke="#94a3b8" d="M425.9,-40C460.38,-40 500.22,-40 535.89,-40"/>
<polygon fill="#94a3b8" stroke="#94a3b8" points="543.91,-40 535.91,-43.6 539.91,-40 535.91,-40 535.91,-40 535.91,-40 539.91,-40 535.91,-36.4 543.91,-40 543.91,-40"/>
<text text-anchor="middle" x="490" y="-43" font-family="Times,serif" font-size="10.00" fill="#cbd5e1">1..*</text>
</g>
</g>
</svg>
